<svg width="300" height="200" viewBox="0 0 300 200" xmlns="http://www.w3.org/2000/svg">
  <rect width="300" height="200" fill="#1e1e1e" rx="8"/>
  <!-- File icon -->
  <rect x="30" y="50" width="50" height="60" rx="3" stroke="#555" fill="none" stroke-width="1"/>
  <path d="M55 50 L80 50 L80 65 L65 65 L55 55 Z" stroke="#555" fill="none" stroke-width="1"/>
  <text x="55" y="90" text-anchor="middle" font-size="8" font-family="monospace" fill="#8b8b8b">.ino</text>
  <!-- Arrow -->
  <line x1="95" y1="80" x2="125" y2="80" stroke="#3794ff" stroke-width="2"/>
  <polygon points="125,75 135,80 125,85" fill="#3794ff"/>
  <!-- Blocks workspace -->
  <rect x="145" y="30" width="130" height="140" rx="4" stroke="#555" fill="none" stroke-width="1"/>
  <!-- Blocks -->
  <rect x="155" y="50" width="100" height="22" rx="3" fill="#5b80a5"/>
  <text x="205" y="65" text-anchor="middle" font-size="9" font-family="sans-serif" fill="white">pinMode</text>
  <rect x="155" y="80" width="110" height="22" rx="3" fill="#a5745b"/>
  <text x="210" y="95" text-anchor="middle" font-size="9" font-family="sans-serif" fill="white">digitalWrite</text>
  <rect x="155" y="110" width="80" height="22" rx="3" fill="#7a5ba5"/>
  <text x="195" y="125" text-anchor="middle" font-size="9" font-family="sans-serif" fill="white">delay</text>
  <text x="210" y="155" text-anchor="middle" font-size="8" font-family="sans-serif" fill="#8b8b8b">Blocks Editor</text>
</svg>
